<svg
      xmlns="http://www.w3.org/2000/svg"
      width="40.8"
      height="60.6"
      viewBox="0 0 80.688 81.836"
    >
      <g transform="translate(-1902.604 -1735.036)">
        <path
          d="M1982.841,1772.566c-1.8-5.091-7.746-6.56-12.512-7.123-2.755-.325-5.668-.541-8.2-1.762a8.413,8.413,0,0,1-1.084-.628q-2.287-6.515-4.574-13.031c-.759-2.16-1.481-4.337-2.288-6.48a19.482,19.482,0,0,0-2.516-4.93,8.474,8.474,0,0,0-9.605-3.136c-3.755,1.212-6.418,4.319-7.991,7.825-2.825,6.292-3.238,17.124-11.574,18.868-4.052.847-8.239-.449-12.285.47-3.136.713-6.463,2.7-7.382,5.973-1.312,4.67,3.488,8.246,6.62,10.795a72.83,72.83,0,0,0,10.823,7.288l-2.73,4.405-3.785,6.108a25.082,25.082,0,0,0-2.921,5.729c-1.042,3.384-.108,7.878,3.583,9.192,2.071.737,4.268.217,6.287-.439a53.733,53.733,0,0,0,6.013-2.364,56.222,56.222,0,0,0,11.388-7.021c2.278,2.124,3.595,5.053,5.187,7.7,1.69,2.808,3.842,5.175,7,6.3,2.8.993,6.188.846,8.122-1.705a8.489,8.489,0,0,0,1.456-5.359c-.024-2.111-.338-4.233-.542-6.332q-.7-7.209-1.4-14.418c5.622-1.983,11.955-.909,17.441-3.357C1980.044,1783.047,1984.793,1778.082,1982.841,1772.566Z"
          transform="translate(0)"
          fill="#2d3e54"
        />
        <path
          d="M2000.142,1846.2l-.8,3.635a1.262,1.262,0,0,0,2.477.482l.8-3.636A1.262,1.262,0,0,0,2000.142,1846.2Z"
          transform="translate(-53.502 -60.966)"
          fill="#d39a4a"
        />
        <path
          d="M1990.156,1822.081a1.271,1.271,0,0,0-1.691.569q-.479,1.343-.959,2.685a1.3,1.3,0,0,0,.568,1.692,1.271,1.271,0,0,0,1.692-.569l.958-2.685A1.3,1.3,0,0,0,1990.156,1822.081Z"
          transform="translate(-46.917 -48.093)"
          fill="#d39a4a"
        />
        <path
          d="M2012.705,1822.562q-.308,1.531-.616,3.06a1.262,1.262,0,0,0,2.477.481l.616-3.06A1.262,1.262,0,0,0,2012.705,1822.562Z"
          transform="translate(-60.559 -47.884)"
          fill="#d39a4a"
        />
        <path
          d="M2058.594,1829.807a1.272,1.272,0,0,0-1.691.568l-1.15,3.068a1.3,1.3,0,0,0,.569,1.691,1.272,1.272,0,0,0,1.691-.569l1.15-3.068A1.3,1.3,0,0,0,2058.594,1829.807Z"
          transform="translate(-84.674 -52.367)"
          fill="#d39a4a"
        />
        <path
          d="M1982.113,1787.828a1.271,1.271,0,0,0-1.691.569l-1.066,3.03a1.3,1.3,0,0,0,.568,1.691,1.271,1.271,0,0,0,1.692-.569l1.066-3.03A1.3,1.3,0,0,0,1982.113,1787.828Z"
          transform="translate(-42.408 -29.142)"
          fill="#d39a4a"
        />
        <path
          d="M2002.381,1764.138a1.271,1.271,0,0,0-1.691.569l-1.149,3.069a1.3,1.3,0,0,0,.569,1.691,1.272,1.272,0,0,0,1.691-.569l1.148-3.069A1.3,1.3,0,0,0,2002.381,1764.138Z"
          transform="translate(-53.574 -16.034)"
          fill="#d39a4a"
        />
        <path
          d="M1965.694,1819.382a1.292,1.292,0,0,0-1.479,1l-1.342,4.218a1.268,1.268,0,0,0,1,1.479,1.292,1.292,0,0,0,1.479-1l1.343-4.219A1.269,1.269,0,0,0,1965.694,1819.382Z"
          transform="translate(-33.322 -46.652)"
          fill="#d39a4a"
        />
        <path
          d="M1974.919,1845.119a1.286,1.286,0,0,0-1.479,1l-.78,2.873a1.273,1.273,0,0,0,1,1.479,1.286,1.286,0,0,0,1.479-1l.78-2.873A1.273,1.273,0,0,0,1974.919,1845.119Z"
          transform="translate(-38.741 -60.893)"
          fill="#d39a4a"
        />
        <path
          d="M2001.418,1874.335a1.3,1.3,0,0,0-1.479,1q-.287.959-.575,1.917a1.266,1.266,0,0,0,1,1.479,1.3,1.3,0,0,0,1.479-1l.575-1.918A1.265,1.265,0,0,0,2001.418,1874.335Z"
          transform="translate(-53.514 -77.061)"
          fill="#d39a4a"
        />
        <path
          d="M2020.614,1880.033a1.282,1.282,0,0,0-1.691.569l-.959,2.109a1.262,1.262,0,1,0,2.26,1.123l.959-2.11A1.282,1.282,0,0,0,2020.614,1880.033Z"
          transform="translate(-63.76 -80.158)"
          fill="#d39a4a"
        />
        <path
          d="M2011.639,1898.794a1.292,1.292,0,0,0-1.479,1l-.987,3.059a1.268,1.268,0,0,0,1,1.479,1.292,1.292,0,0,0,1.479-1l.987-3.059A1.269,1.269,0,0,0,2011.639,1898.794Z"
          transform="translate(-58.938 -90.589)"
          fill="#d39a4a"
        />
        <path
          d="M2024.867,1800.2a1.283,1.283,0,0,0-1.691.569l-1.35,2.489a1.262,1.262,0,1,0,2.26,1.122l1.35-2.488A1.278,1.278,0,0,0,2024.867,1800.2Z"
          transform="translate(-65.888 -35.981)"
          fill="#d39a4a"
        />
        <path
          d="M2002.01,1799.2a1.293,1.293,0,0,0-1.479,1l-.77,2.3a1.267,1.267,0,0,0,1,1.479,1.294,1.294,0,0,0,1.479-1q.385-1.15.77-2.3A1.268,1.268,0,0,0,2002.01,1799.2Z"
          transform="translate(-53.73 -35.487)"
          fill="#d39a4a"
        />
        <path
          d="M1987.4,1745.634a1.273,1.273,0,0,0-1.691.569q-.51,1.234-1.021,2.467a1.293,1.293,0,0,0,.569,1.691,1.273,1.273,0,0,0,1.691-.569l1.021-2.467A1.293,1.293,0,0,0,1987.4,1745.634Z"
          transform="translate(-45.352 -5.796)"
          fill="#d39a4a"
        />
        <path
          d="M2017.025,1782.224a1.29,1.29,0,0,0-1.691.569l-1.162,2.1a1.272,1.272,0,0,0,.569,1.691,1.29,1.29,0,0,0,1.691-.569l1.162-2.1A1.272,1.272,0,0,0,2017.025,1782.224Z"
          transform="translate(-61.654 -26.041)"
          fill="#d39a4a"
        />
        <path
          d="M1975.305,1768.848a1.275,1.275,0,0,0-1.691.569l-1.151,2.685a1.291,1.291,0,0,0,.569,1.691,1.275,1.275,0,0,0,1.691-.569l1.151-2.685A1.291,1.291,0,0,0,1975.305,1768.848Z"
          transform="translate(-38.587 -18.639)"
          fill="#d39a4a"
        />
        <path
          d="M1957.63,1802.322a1.289,1.289,0,0,0-1.691.569l-1.495,3.186a1.267,1.267,0,0,0,.569,1.479,1.29,1.29,0,0,0,1.691-.569l1.495-3.186A1.267,1.267,0,0,0,1957.63,1802.322Z"
          transform="translate(-29.352 -43.132)"
          fill="#d39a4a"
        />
      </g>
    </svg>