<svg xmlns="http://www.w3.org/2000/svg" width="29.704" height="29.297"><path fill="#d35d4a" d="M7.148 2.057a5.762 5.762 0 0 1 6.73.602c1.868 1.656 2.146 3.913 2.224 6.05.005.155.007.312.009.467a5.374 5.374 0 0 1 1.247-.956 7.862 7.862 0 0 1 2.155-.872 6.734 6.734 0 0 1 4.46.471 6.048 6.048 0 0 1 3.008 3.14 8.576 8.576 0 0 1 .04 5.347 10.394 10.394 0 0 1-2.57 4.095 13.089 13.089 0 0 1-4.628 2.692 22.669 22.669 0 0 1-4.526 1.272c-1.881.324-3.382.616-5.27.904a2.832 2.832 0 0 1-1.375.035 1.458 1.458 0 0 1-.855-.941 24.315 24.315 0 0 1-.76-2.662c-.142-.563-.32-1.122-.445-1.686-.259-.772-.446-1.562-.704-2.327-.924-2.733-1.92-5.565-1.8-8.493.107-2.602.769-5.588 3.06-7.138Z"/></svg>