<svg xmlns="http://www.w3.org/2000/svg" width="179.857" height="156.974" viewBox="0 0 179.857 156.974"><g transform="translate(-2698.086 442.188) rotate(-21)"><path d="M2808.214,645.878a20.934,20.934,0,0,0-6.758-13.188,20.034,20.034,0,0,0-14.178-5.131,22.633,22.633,0,0,0-14.313,5.748c.83-8.743-.893-18.12-7.719-24.191a18.068,18.068,0,0,0-11.445-4.754c-4.744-.115-9.338,1.926-13.03,4.791-4.181,3.245-7.328,7.543-10.331,11.857a20.748,20.748,0,0,0-6.333-10.375,19.876,19.876,0,0,0-13.277-4.985,20.5,20.5,0,0,0-13.492,5.113,26.776,26.776,0,0,0-7.231,11.591,73.832,73.832,0,0,0-3.027,14.784c-6.957-5.319-17.511-4.916-23.734,1.431a18.861,18.861,0,0,0-5.265,11.992,17.243,17.243,0,0,0,4.265,12.327,18.621,18.621,0,0,0,11.693,6.3c-5.651,5.258-7.294,14.245-4.177,21.323,3.916,8.894,13.52,13.956,23.006,13.718a32.843,32.843,0,0,0,16.315-5.081,26.727,26.727,0,0,0,18.274,15.054,25.529,25.529,0,0,0,23.162-6.588,25.851,25.851,0,0,0,6.887-10.781c7.569,8.156,19.854,11.977,30.355,7.406a24.562,24.562,0,0,0,11.749-10.586,21.11,21.11,0,0,0-6.922-27.5C2801.985,664.545,2809.17,655.377,2808.214,645.878Z" transform="translate(0 0)" fill="#b1ceca"></path><path d="M2772.427,691.415c-.134-1.138-1.917-1.009-1.783.138a2.193,2.193,0,1,1-4.354.336c-.043-1.149-1.826-1.013-1.783.138a3.977,3.977,0,1,0,7.92-.611Z" transform="translate(-62.998 -51.051)" fill="#fff6ef"></path><path d="M2817.227,732.245c-.14.962-.412,3.1-1.847,2.88-1.373-.207-1.713-2.082-1.96-3.169a.9.9,0,0,0-1.139-.548.915.915,0,0,0-.548,1.139c.439,1.923,1.348,4.224,3.651,4.37a2.991,2.991,0,0,0,2.523-1.211,6.481,6.481,0,0,0,1.076-3.119C2819.148,731.451,2817.394,731.1,2817.227,732.245Z" transform="translate(-90.927 -75.159)" fill="#fff6ef"></path><path d="M2861.475,693.765a.9.9,0,0,0-1.049.707c-.148,1.353-.343,3.709-2.05,4.049-1.776.354-2.465-2.185-2.81-3.4-.313-1.107-2-.514-1.687.591a8.112,8.112,0,0,0,1.539,3.3,3.6,3.6,0,0,0,3.1,1.295c2.679-.37,3.42-3.233,3.667-5.491A.917.917,0,0,0,2861.475,693.765Z" transform="translate(-115.864 -52.901)" fill="#fff6ef"></path><path d="M2896.1,741.944c-.141-1.137-1.925-1.009-1.782.138a1.465,1.465,0,1,1-2.85-.058.894.894,0,0,0-1.755-.341,3.246,3.246,0,1,0,6.387.262Z" transform="translate(-137.057 -80.854)" fill="#fff6ef"></path><path d="M2855.6,781.365c-.124-1.14-1.908-1.01-1.783.138a2.356,2.356,0,1,1-4.614-.192.9.9,0,0,0-1.755-.341,4.14,4.14,0,1,0,8.152.4Z" transform="translate(-112.037 -104.104)" fill="#fff6ef"></path><path d="M2923.414,784.071a.922.922,0,0,0-.96-.823.9.9,0,0,0-.823.96,2.509,2.509,0,0,1-2.18,3.224,1.8,1.8,0,0,1-1.677-2.633c.555-1.01-1.048-1.8-1.6-.8a3.562,3.562,0,0,0,3.107,5.207A4.24,4.24,0,0,0,2923.414,784.071Z" transform="translate(-152.512 -105.862)" fill="#fff6ef"></path><path d="M2827.033,823.467c-.178-1.128-1.962-1-1.782.138a1.781,1.781,0,1,1-3.5.251.918.918,0,0,0-.707-1.048.9.9,0,0,0-1.048.707,3.561,3.561,0,1,0,7.039-.048Z" transform="translate(-95.824 -129.2)" fill="#fff6ef"></path><path d="M2788.52,778.992a.922.922,0,0,0-.96-.823.9.9,0,0,0-.822.96,2.293,2.293,0,0,1-1.9,2.741,2.252,2.252,0,0,1-2.263-2.471c.163-1.135-1.59-1.483-1.755-.341a3.917,3.917,0,1,0,7.7-.066Z" transform="translate(-72.629 -102.856)" fill="#fff6ef"></path><path d="M2748.752,737.976c-.317-1.106-2-.514-1.688.591a1.691,1.691,0,0,1-1.636,1.99,2.1,2.1,0,0,1-1.8-2.265.9.9,0,0,0-.959-.823.916.916,0,0,0-.823.96,3.819,3.819,0,0,0,3.859,3.905A3.5,3.5,0,0,0,2748.752,737.976Z" transform="translate(-49.586 -78.723)" fill="#fff6ef"></path><path d="M2824.621,658.775a.9.9,0,0,0-1.139-.548.916.916,0,0,0-.549,1.139,1.835,1.835,0,0,1-1.8,2.092,1.856,1.856,0,0,1-1.453-2.405.9.9,0,0,0-.706-1.048.914.914,0,0,0-1.048.707,3.5,3.5,0,1,0,6.7.063Z" transform="translate(-94.525 -31.737)" fill="#fff6ef"></path><path d="M2766.756,635.4c-.232.922-.593,2.548-1.8,2.613-.945.051-1.22-1.448-1.378-2.119a.9.9,0,0,0-1.139-.548.915.915,0,0,0-.548,1.139c.376,1.593,1.271,3.443,3.2,3.31,2.138-.146,2.974-2.281,3.422-4.055C2768.792,634.628,2767.037,634.29,2766.756,635.4Z" transform="translate(-61.428 -17.967)" fill="#fff6ef"></path><path d="M2888.425,634.7a.915.915,0,0,0-.823.96c-.03,1.122-.1,3.375-1.662,3.5-.589.046-1.027-.5-1.215-1a6.1,6.1,0,0,1-.167-2.46.9.9,0,0,0-.96-.823.918.918,0,0,0-.823.96,6.2,6.2,0,0,0,.558,3.533,2.987,2.987,0,0,0,2.745,1.572,3.465,3.465,0,0,0,2.6-1.778,7.423,7.423,0,0,0,.708-3.639A.9.9,0,0,0,2888.425,634.7Z" transform="translate(-132.97 -17.952)" fill="#fff6ef"></path><path d="M2919.59,694.43c-.224,1.313-.567,3.589-2.271,3.763a1.641,1.641,0,0,1-1.511-1,5.177,5.177,0,0,1-.373-2.49.9.9,0,0,0-.96-.823.914.914,0,0,0-.823.96,6.134,6.134,0,0,0,.792,3.547,3.381,3.381,0,0,0,2.858,1.6,3.739,3.739,0,0,0,2.827-1.642,8.51,8.51,0,0,0,1.215-3.571A.894.894,0,0,0,2919.59,694.43Z" transform="translate(-151.258 -52.889)" fill="#fff6ef"></path><path d="M2962.429,733.512a.919.919,0,0,0-.96-.823.9.9,0,0,0-.823.96,1.836,1.836,0,1,1-3.55-.036.894.894,0,0,0-1.755-.341,3.616,3.616,0,1,0,7.087.239Z" transform="translate(-175.878 -75.88)" fill="#fff6ef"></path><path d="M2986.068,685.52a.894.894,0,0,0-1.687.591,1.962,1.962,0,1,1-3.676.19c.28-1.117-1.477-1.455-1.755-.341a3.747,3.747,0,1,0,7.118-.44Z" transform="translate(-189.835 -47.692)" fill="#fff6ef"></path><path d="M2966.657,810.4a.9.9,0,0,0-1.783.137,1.559,1.559,0,1,1-3.087-.137c.169-1.134-1.584-1.482-1.755-.341a3.346,3.346,0,1,0,6.625.341Z" transform="translate(-178.684 -121.312)" fill="#fff6ef"></path><path d="M2694.657,712.035c-.121,1.043-.331,3.348-1.849,3.316s-1.627-2.3-1.681-3.351a.9.9,0,0,0-1.783.137,7.059,7.059,0,0,0,.785,3.351,3.277,3.277,0,0,0,2.667,1.644,3.211,3.211,0,0,0,2.588-1.419,6.953,6.953,0,0,0,1.028-3.337C2696.543,711.241,2694.79,710.89,2694.657,712.035Z" transform="translate(-18.518 -63.23)" fill="#fff6ef"></path><path d="M2719.618,779.425a.92.92,0,0,0-.96-.823.9.9,0,0,0-.823.96,2.166,2.166,0,0,1-1.775,2.727,1.555,1.555,0,0,1-1.638-2.085c.46-1.052-1.139-1.85-1.6-.8a3.352,3.352,0,0,0,3.068,4.67A3.906,3.906,0,0,0,2719.618,779.425Z" transform="translate(-32.245 -103.112)" fill="#fff6ef"></path><path d="M2753.434,810.894a.9.9,0,0,0-1.048.707c-.052.895-.044,2.425-1.083,2.8-1.055.386-1.367-1.4-1.478-2.058a.919.919,0,0,0-.96-.823.9.9,0,0,0-.823.96,5.493,5.493,0,0,0,1.017,2.756,2.594,2.594,0,0,0,2.322.977c2.089-.316,2.654-2.485,2.759-4.276A.924.924,0,0,0,2753.434,810.894Z" transform="translate(-53.25 -122.215)" fill="#fff6ef"></path></g></svg>