<svg xmlns="http://www.w3.org/2000/svg" width="110" height="73.17" viewBox="0 0 110 73.17"><path d="M1538.776,1180.918a15.358,15.358,0,0,0-16.686.265c-.673-5.322-1.847-10.64-4.919-15.136a25.578,25.578,0,0,0-11.929-9.4,25.2,25.2,0,0,0-28.782,8.555c-3.474,4.7-5.351,10.35-6.448,16.051a24.675,24.675,0,0,0-10.4-4.506c-7.136-1.263-15.635.837-19.879,7.112-4.552,6.732-3.07,15.821.593,22.584,3.723,6.874,10,12.059,17,15.362,7.759,3.661,16.385,5.292,24.882,6.038a108.005,108.005,0,0,0,27.722-1.106c8.44-1.45,17.086-3.693,24.261-8.553,6.3-4.264,11.483-10.9,12.531-18.592C1547.673,1192.534,1544.827,1184.9,1538.776,1180.918Z" transform="translate(-1436.897 -1155.094)" fill="#d2903b"></path></svg>