<svg xmlns="http://www.w3.org/2000/svg" width="60.853" height="34.656" fill="#2d3e54" viewBox="0 0 69.853 46.656"><path d="M67.15.139c-2.48-.719-4.291 1.487-5.389 3.374a34.794 34.794 0 0 0-3.387 7.96.678.678 0 0 0-.027.2 94.613 94.613 0 0 1-9.39 9.008l4.1-6.6c1.093-1.759 2.461-4.231.841-6.139a3.542 3.542 0 0 0-4.742-.216c-1.739 1.329-2.25 3.75-2.451 5.805a25.055 25.055 0 0 0 .778 8.355 97.1 97.1 0 0 1-8.6 6.168q-1.1.7-2.222 1.374a17.839 17.839 0 0 0 2.269-4.652 16.552 16.552 0 0 0 .69-3.243 6.672 6.672 0 0 0-.246-3.14c-.689-1.767-2.875-2.938-4.509-1.582-1.607 1.334-1.991 3.9-2.01 5.865a25.159 25.159 0 0 0 1.669 7.935l.019.05a97.6 97.6 0 0 1-13.373 6.28 10.785 10.785 0 0 0 1.978-3.476 14.681 14.681 0 0 0 .693-3.4 8.92 8.92 0 0 0-.1-3.181 3.151 3.151 0 0 0-4.572-2.031c-1.98 1.062-2.156 3.418-2.187 5.416a27.928 27.928 0 0 0 1.015 7.81q-1.475.5-2.965.961A94.292 94.292 0 0 1 .511 42.245a.622.622 0 0 0 .177 1.23 96.308 96.308 0 0 0 16.957-3.969 18.6 18.6 0 0 0 4.047 5.167 6.7 6.7 0 0 0 5.746 1.86 3.915 3.915 0 0 0 3.165-4.006c-.168-2.164-2.36-3.089-4.152-3.666a15.976 15.976 0 0 0-4.856-.759q2.392-.908 4.733-1.94 4.145-1.827 8.112-4.033a14.208 14.208 0 0 0 4.581 3.916 6.807 6.807 0 0 0 5.824.337 3.458 3.458 0 0 0 1.856-4.462c-.847-1.745-3.414-2.35-5.166-2.556a11.715 11.715 0 0 0-2.361-.036 98.052 98.052 0 0 0 8.851-6.285l.047.034a15.27 15.27 0 0 0 6.2 2.29c2.048.292 4.561.439 6.472-.491 1.682-.818 2.872-2.994 1.609-4.684-1.408-1.884-4.1-1.451-6.077-.966a36.943 36.943 0 0 0-5.957 1.926 96.4 96.4 0 0 0 9.106-8.832 19.118 19.118 0 0 0 7.025-2.4 7.385 7.385 0 0 0 3.371-5.112c.21-1.879-.728-4.105-2.671-4.669Z"/></svg>