<svg xmlns="http://www.w3.org/2000/svg" xmlns:xlink="http://www.w3.org/1999/xlink" width="206.581" height="92.727" viewBox="0 0 206.581 92.727"><defs><clipPath id="a"><path d="M1955.6,1572.192c-5.1-11.773-19.358-15.783-30.919-11.922q-.971.324-1.915.712a27.991,27.991,0,0,0-10.413-22.515c-7.423-6.015-17.592-6.947-26.348-3.486a26.816,26.816,0,0,0-10.721,7.724,30.464,30.464,0,0,0-21.834-16.3c-10.287-1.861-20.488,2.527-27.08,10.457a29.307,29.307,0,0,0-6.114,12.494,24.383,24.383,0,0,0-18.713-7.945,23.084,23.084,0,0,0-19.644,12.805,24.043,24.043,0,0,0-2.646,10.349c-5.119-3.338-11.991-3.358-17.51-.688-7.149,3.458-10.8,11.367-10.655,19.069.158,8.537,4.622,16.008,11.1,21.353,6.713,5.54,15.082,8.372,23.559,9.842q1.888.506,3.8.9a69.1,69.1,0,0,0,7.965,1.174,1.449,1.449,0,0,0,.222.026l.128.006q2.58.214,5.171.228c15.32.673,30.64,1.323,45.969,1.745,17.018.469,34.051.667,51.072.284,15.385-.347,31.646-1.652,44.365-11.245a33.117,33.117,0,0,0,11.825-15.933A27.447,27.447,0,0,0,1955.6,1572.192Z" transform="translate(-1751.085 -1525.984)" fill="#b1ceca"></path></clipPath></defs><g transform="translate(-1751.085 -1525.984)"><g transform="translate(1751.085 1525.984)"><path d="M1955.6,1572.192c-5.1-11.773-19.358-15.783-30.919-11.922q-.971.324-1.915.712a27.991,27.991,0,0,0-10.413-22.515c-7.423-6.015-17.592-6.947-26.348-3.486a26.816,26.816,0,0,0-10.721,7.724,30.464,30.464,0,0,0-21.834-16.3c-10.287-1.861-20.488,2.527-27.08,10.457a29.307,29.307,0,0,0-6.114,12.494,24.383,24.383,0,0,0-18.713-7.945,23.084,23.084,0,0,0-19.644,12.805,24.043,24.043,0,0,0-2.646,10.349c-5.119-3.338-11.991-3.358-17.51-.688-7.149,3.458-10.8,11.367-10.655,19.069.158,8.537,4.622,16.008,11.1,21.353,6.713,5.54,15.082,8.372,23.559,9.842q1.888.506,3.8.9a69.1,69.1,0,0,0,7.965,1.174,1.449,1.449,0,0,0,.222.026l.128.006q2.58.214,5.171.228c15.32.673,30.64,1.323,45.969,1.745,17.018.469,34.051.667,51.072.284,15.385-.347,31.646-1.652,44.365-11.245a33.117,33.117,0,0,0,11.825-15.933A27.447,27.447,0,0,0,1955.6,1572.192Z" transform="translate(-1751.085 -1525.984)" fill="#b1ceca"></path><g transform="translate(0)" clip-path="url(#a)"><path d="M1958.238,1634.808a31.538,31.538,0,0,1-17.391-7.157c-.482-.4-1-.867-1.514-1.378a13.573,13.573,0,0,0,2.944-2.918c1.595-2.226,2.546-5.841-.337-7.529-2.389-1.4-5.433.353-6.578,2.581-1.3,2.529-.172,5.335,1.436,7.495a29.978,29.978,0,0,1-5.125,2.611,33.823,33.823,0,0,1-15.6,2.135,33.257,33.257,0,0,1-14.93-5.131,24.576,24.576,0,0,1-5.268-4.443,9.808,9.808,0,0,0,4.411-5.173,3.646,3.646,0,0,0-4.375-4.725,5.253,5.253,0,0,0-3.844,6.371,9.2,9.2,0,0,0,1.334,3.1c-1.066.587-2.17,1.093-3.219,1.541a34,34,0,0,1-17.2,2.476,30.017,30.017,0,0,1-13.8-4.888,16.185,16.185,0,0,0,3.227-4.867c1.021-2.547,1.228-5.906-1.359-7.6-2.419-1.588-5.485-.111-7.015,2.018-1.865,2.595-1.3,5.822.492,8.3a13.716,13.716,0,0,0,2.115,2.29,26.784,26.784,0,0,1-3.333,2.7,26.035,26.035,0,0,1-17.029,4.551,26.747,26.747,0,0,1-14.981-6.386c1.369-2.243,2.567-4.839,2.191-7.472-.4-2.82-3.278-4.591-5.8-2.807-3.112,2.2-2.252,6.172-.206,8.776a19.858,19.858,0,0,0,1.648,1.84c-.553.8-1.141,1.562-1.721,2.27a28.837,28.837,0,0,1-6.322,5.732,27.734,27.734,0,0,1-17.436,4.559,28.613,28.613,0,0,1-9.134-2.224,24.939,24.939,0,0,1-4.229-2.256c.1-.112.2-.224.292-.338,1.879-2.245,3.726-5.348,2.924-8.4a4.107,4.107,0,0,0-6.331-2.315,5.9,5.9,0,0,0-2.171,7.657,10.736,10.736,0,0,0,2.789,3.592c-.364.34-.732.663-1.1.968a21.887,21.887,0,0,1-7.69,4.123,21.072,21.072,0,0,1-23.191-8.4.846.846,0,0,0-1.4.946,22.6,22.6,0,0,0,34.716,3.4,25.608,25.608,0,0,0,3.679,2.1,29.632,29.632,0,0,0,37.549-10.291,28.12,28.12,0,0,0,5.558,3.662,27.822,27.822,0,0,0,20.8,1.788,28.257,28.257,0,0,0,9.245-4.949c.683-.552,1.367-1.143,2.029-1.771a27.21,27.21,0,0,0,4.7,2.62,35.427,35.427,0,0,0,30.6-1.033c.358-.188.725-.385,1.093-.593a24.841,24.841,0,0,0,3.884,3.572,32.6,32.6,0,0,0,8.313,4.619,36.275,36.275,0,0,0,19.021,1.794,33.732,33.732,0,0,0,9.057-2.924,35.839,35.839,0,0,0,3.256-1.793,29.679,29.679,0,0,0,9.18,6.349,33.152,33.152,0,0,0,10.813,2.882C1958.988,1636.566,1959.323,1634.907,1958.238,1634.808Zm-180-15.327a2.387,2.387,0,0,1,3.171.452,4.009,4.009,0,0,1,.369,3.493,11.675,11.675,0,0,1-2.79,4.766,10.744,10.744,0,0,1-1.772-1.934C1775.644,1624.014,1775.6,1620.947,1778.24,1619.481Zm40.521-7.655a1.887,1.887,0,0,1,2.9,1,5.827,5.827,0,0,1-.087,3.4,14.288,14.288,0,0,1-1.491,3.414C1818.2,1617.745,1815.576,1613.857,1818.761,1611.826Zm36.389-1.129c1.1-1.862,4.033-3.515,5.683-1.327,1.573,2.085.078,5.328-1.228,7.153a23.418,23.418,0,0,1-1.769,2.178q-.421-.368-.816-.76C1855.169,1616.1,1853.669,1613.2,1855.15,1610.7Zm40.647,2.287a2.073,2.073,0,0,1,2.69.579c.8,1.282-.129,2.867-.961,3.871a12.284,12.284,0,0,1-2.655,2.32C1893.391,1617.536,1892.84,1614.227,1895.8,1612.984Zm40.8,6.913c.479-1.97,3.7-4.223,5.192-1.932,1.524,2.338-1.507,5.435-3.2,6.7-.139.1-.281.2-.422.3C1936.98,1623.474,1936.154,1621.717,1936.6,1619.9Z" transform="translate(-1747.997 -1562.515)" fill="#fff6ef"></path></g></g></g></svg>