<svg xmlns="http://www.w3.org/2000/svg" width="74.688" height="80.644" viewBox="0 0 74.688 80.644"><g transform="translate(-4607.724 -369.847)"><path d="M4624.028,468.171c-1.109-2.472-4.594-3.651-6.607-1.46a6.145,6.145,0,0,0-1.251,3.417,17.282,17.282,0,0,0-.589,1.869c-.589,2.318-.747,5.529,1.584,6.951,2.523,1.538,5.021-.638,6.175-2.795C4624.567,473.855,4625.127,470.619,4624.028,468.171Z" transform="translate(-3.01 -38.491)" fill="#d35d4a"></path><path d="M4657.642,424.919a3.249,3.249,0,0,0-3.406-.473,4.261,4.261,0,0,0-.762.114c-2.521.613-3.219,3.738-3.5,5.954-.321,2.57-.208,6.28,3,6.907,3.449.674,4.418-3.194,5.21-5.652C4658.914,429.526,4659.958,426.621,4657.642,424.919Z" transform="translate(-16.945 -21.843)" fill="#d35d4a"></path><path d="M4671.7,485.57a2.22,2.22,0,0,0-.727-1.331,2.264,2.264,0,0,0-1.389-1.615c-3.647-1.343-4.613,5-4.808,7.182-.131,1.477-.434,3.471.44,4.784a2.745,2.745,0,0,0,3.826.7C4671.81,493.45,4672.148,488.481,4671.7,485.57Z" transform="translate(-22.882 -45.281)" fill="#d35d4a"></path><path d="M4700.769,440.47a2.881,2.881,0,0,0-1.083-1.227,2.048,2.048,0,0,0-.332-.414c-1.328-1.279-3.279-.358-4.035,1.03a14.613,14.613,0,0,0-1.467,6.274c-.058,1.555.459,3.418,2.259,3.713,2.206.361,3.213-1.857,3.851-3.543S4701.593,442.248,4700.769,440.47Z" transform="translate(-34.636 -27.497)" fill="#d35d4a"></path><path d="M4615.149,399.236a3.18,3.18,0,0,0-1.132-3.374c-1.691-1.188-3.678-.167-4.76,1.312-1.475,2.016-1.762,5.1-1.38,7.489.3,1.889,1.435,4,3.649,3.861,2.417-.15,3.1-2.69,3.6-4.655C4615.495,402.411,4615.868,400.583,4615.149,399.236Z" transform="translate(0 -10.253)" fill="#d35d4a"></path><path d="M4674.322,370.926a3.8,3.8,0,0,0-1.306-.7,2.616,2.616,0,0,0-1.225-.369c-1.911-.148-3,1.939-3.583,3.417-.779,1.966-1.806,4.593-1.222,6.723a3.355,3.355,0,0,0,4.671,2.19c1.965-.828,3.071-3.278,3.669-5.178C4675.964,374.985,4676.153,372.42,4674.322,370.926Z" transform="translate(-23.764)" fill="#d35d4a"></path><path d="M4723.873,397.275a1.992,1.992,0,0,0-2.418-2c-2.4.233-3.775,3.457-4.487,5.388-.733,1.99-1.6,4.894.257,6.564,2.273,2.049,4.851-.2,5.809-2.361C4723.9,402.909,4725.557,399.216,4723.873,397.275Z" transform="translate(-43.59 -10.218)" fill="#d35d4a"></path><path d="M4725.364,473.078a2.755,2.755,0,0,0-3.759-.752,7.412,7.412,0,0,0-2.914,4.435,5.05,5.05,0,0,0,.7,4.756,3.723,3.723,0,0,0,5.212.274C4727.091,479.816,4727.926,474.855,4725.364,473.078Z" transform="translate(-44.513 -41.042)" fill="#d35d4a"></path></g></svg>