<svg xmlns="http://www.w3.org/2000/svg" width="73.493" height="58.334" viewBox="0 0 73.493 58.334"><g transform="translate(-3932.613 -1625.596)"><path d="M3945.16,1704.2a52.59,52.59,0,0,0-7.138-15,.878.878,0,0,0-1.57.32c-1.44,5.021-3.377,9.914-3.707,15.169a1.089,1.089,0,0,0,.858,1.65,61.454,61.454,0,0,0,10.232-.11A1.546,1.546,0,0,0,3945.16,1704.2Zm-11.413-.351-.023.007c1.106-4.054,1.939-8.244,3.586-12.117a87.092,87.092,0,0,1,4.406,11.479A47.416,47.416,0,0,0,3933.746,1703.851Z" transform="translate(0 -39.509)" fill="#c36515"></path><path d="M4020.237,1652.625c-1.182-5.133-3.052-10.057-4.485-15.114-.3-1.074-1.7-.73-1.967.143a84.244,84.244,0,0,0-1.772,8.62,51.048,51.048,0,0,0-1.184,7.072,1.252,1.252,0,0,0,.7,2.123c2.18.207,4.728.844,6.905.58C4020.288,1655.824,4020.6,1654.183,4020.237,1652.625Zm-2.649,1.066a9.675,9.675,0,0,1-2.634-.38l-2.711-.391a45.765,45.765,0,0,0,1.788-6.253c.367-1.517.786-3.075,1.13-4.641.721,2.328,1.323,4.7,1.917,7.043q.311,1.225.6,2.454a7.906,7.906,0,0,1,.37,1.622C4018.045,1653.8,4018.139,1653.57,4017.588,1653.691Z" transform="translate(-48.659 -7.026)" fill="#c36515"></path><path d="M4044.708,1749.939c-.611-3.134-1.172-6.275-1.879-9.389a28.682,28.682,0,0,0-1.17-4.624,1.77,1.77,0,0,0-1.82-1.293,1.566,1.566,0,0,0-.981.538,1.046,1.046,0,0,0-.656.742c-.094.359-.2.715-.294,1.071-.575,1.393-1.112,2.805-1.656,4.21-.714,1.843-1.937,4.1-1.986,6.219-.365.877-.737,1.752-1.125,2.628a1.314,1.314,0,0,0,.917,1.857,25.809,25.809,0,0,0,9.96-.9A1.039,1.039,0,0,0,4044.708,1749.939Zm-8.53-.483a107.558,107.558,0,0,0,4.034-12.751c.407.442.512,2.352.63,2.9q.4,1.865.753,3.738c.363,1.933.688,3.87.931,5.82A31.263,31.263,0,0,1,4036.178,1749.456Z" transform="translate(-62.738 -68.118)" fill="#c36515"></path><path d="M4106.176,1641.893q-1.36-5.245-3.024-10.4c-.506-1.559-1.246-6.32-3.793-5.864-.986.177-1.411,1.059-1.735,1.909-.664,1.739-1.318,3.486-1.919,5.247-.594,1.742-1.232,3.477-1.747,5.243-.46,1.579-1.346,3.512-1.064,5.154.022.13.18.258.309.173a1.19,1.19,0,0,0,1.214.745c3.629-.2,7.241-.574,10.866-.838A1.045,1.045,0,0,0,4106.176,1641.893Zm-9.53-5.725c.455-1.233.928-2.46,1.358-3.7a23.078,23.078,0,0,1,1.486-4.368c.625-1.008,1.1,1.688,1.286,2.256q.617,1.916,1.191,3.847c.694,2.334,1.332,4.683,1.93,7.043-3.155.1-6.31.14-9.463.307.167-.372.319-.755.483-1.135C4095.528,1639.009,4096.114,1637.607,4096.646,1636.168Z" transform="translate(-100.11 0)" fill="#c36515"></path></g></svg>