<svg xmlns="http://www.w3.org/2000/svg" width="33.16" height="34.641"><path fill="#c88215" d="M33.009 24.279a10.624 10.624 0 0 0-1.321-2.259q-.767-1.131-1.6-2.211a41.3 41.3 0 0 0-3.718-4.207 23.887 23.887 0 0 0 2.892-3.3 12.993 12.993 0 0 0 2.332-4.139 2.349 2.349 0 0 0-1.668-3.081c-1.492-.3-3.043.465-4.41.951l-2.722.968a21.131 21.131 0 0 1-2.621.891c-.994.21-1.34-.469-1.778-1.217s-.925-1.493-1.439-2.2A17.472 17.472 0 0 0 13.687.784c-1.07-.82-2.754-1.216-3.747-.048a4.21 4.21 0 0 0-.775 2.111q-.242 1.493-.393 3a32.86 32.86 0 0 0-.141 5.714c-.692.452-1.391.893-2.069 1.367a74.789 74.789 0 0 1-2.637 1.786c-1.446.922-3.837 1.754-3.923 3.783s2.511 2.573 4.006 2.951a23.642 23.642 0 0 0 3.274.562c.513.055 1.029.09 1.544.116a3.755 3.755 0 0 1 1.164.17c.477.184.568.618.667 1.077.134.623.258 1.247.388 1.871l.065.313.22 1.789.369 2.987a7.936 7.936 0 0 0 .654 2.806 2.555 2.555 0 0 0 3.91.94 5.006 5.006 0 0 0 1.294-1.789c.4-.849.755-1.723 1.094-2.6a45.494 45.494 0 0 0 1.694-5.338c3.114 1.4 6.392 2.728 9.852 2.656a3.763 3.763 0 0 0 2.353-.556 1.906 1.906 0 0 0 .459-2.173Z"/></svg>